<svg width="72" height="72" fill="none" xmlns="http://www.w3.org/2000/svg"><circle cx="36" cy="36" r="36" fill="#F0F3EE"/><path fill-rule="evenodd" clip-rule="evenodd" d="m44.12 17.529-3.29-1.885 1.173-2.718 3.735 1.665 4.195-3.302 12.18 5.293-6.981 13.759-11.244-6.928.232-5.884Zm13.46 1.63.806-1.668-7.522-3.163-.722 1.25 7.438 3.58Zm-1.772 3.662.721-1.491-7.43-3.971-.993 1.724 7.702 3.738Zm-1.04 2.158-7.676-4.148-.734 1.235 7.484 4.801.927-1.888ZM41.1 11.405l-2.28 4.415s-3.49-1.434-7.169-3.007c-4.086-1.746-.922-7.684 2.808-5.494a238.876 238.876 0 0 1 6.643 4.076l-.002.01ZM30.205 60.707c-1.696-.391-8.363-1.695-9.737-2.011-10.567-2.434-7.26-17.043 4.084-14.428l7.078 1.63c10.687 2.437 8.798 17.162-1.425 14.809Zm2.06-12.945c-7.329-1.688-8.73 9.631-.92 11.427 7.131 1.635 8.222-9.756.922-11.435l-.002.008Zm2.498 7.746c-1.49-.343-.932-2.417.456-2.097 1.389.32.896 2.4-.455 2.09l-.001.007Zm-1.706-3.247c-1.79-.412-1.125-2.926.556-2.539s1.082 2.911-.555 2.535v.004Zm-2.212 5.2c-2.347-.541-1.472-3.83.724-3.324 2.195.506 1.42 3.806-.721 3.313l-.003.01Zm-1.578-5.813c-1.477-.34-.928-2.417.46-2.097 1.388.32.893 2.401-.458 2.09l-.002.007ZM8.941 52.935l.322-7.17 4.042 2.892-.91 2.362-3.454 1.916ZM20 35.884c-.627-1.67 1.808-2.818 2.633-1.1l9.063-3.787-2.393-5.537c-2.547 1.083-4.309-2.915-1.77-4.097l-1.455-3.37-10.91-.505c-3 2.032-4.8 5.82-4.774 7.977 0 0 4.802 9.917 5.848 11.99L20 35.885Zm5.346-16.17.345.833c-2.395 2.283-.446 6.791 2.774 6.699l1.205 2.913-6.44 2.81c-1.836-1.56-4.8-.182-4.945 2.157l-.903.394-5.105-10.105 13.069-5.701Zm-5.663 10.13c3.055-1.333.988-5.695-1.88-4.444-2.868 1.252-.915 5.658 1.876 4.44l.004.004Zm4.901.445c1.965-.857.637-3.663-1.21-2.857-1.848.806-.59 3.637 1.206 2.854l.004.003ZM61.504 45.8c.779 1.83.623 2.866-.584 3.41l-.932.42-.943-1.7.938-.608-2.78-5.373-1.818.82 5.379 10.382c-.705 1.663-10.013 5.55-12.885 5.962l-5.324-13.104c-4.52-.052-5.396-6.378-1.397-7.887-.07-1.857.86-3.752 3.133-4.776 2.516-1.134 4.691-.288 5.992 1.31 3.043-.831 5.12 2.917 3.548 5.138l.55 1.06c.406-.204.936-.465 1.282-.62 1.826-.824 3.005-.173 4.002 1.821.313.6 1.498 2.948 1.839 3.745Zm-2.95 6.73-6.06-11.553-6.1 2.811a3.588 3.588 0 0 1-2.089 1.926l4.46 11.215c2.466-.302 8.446-3.202 9.79-4.4ZM50 36.51l-.58-.116c-1.973-3.77-7.622-1.594-6.494 2.49l-.378.528c-1.533.148-2.986 1.636-2.146 3.5 1.103 2.447 4.374 1.627 4.752-.494l6.646-2.995a1.622 1.622 0 0 0 .81-2.217 1.705 1.705 0 0 0-1.907-1.017 1.698 1.698 0 0 0-.703.32Zm2.737 7.687 3.985 7.807c-.676.805-5.514 3.257-7.196 3.26l-2.738-7.006c3.464-.343 3.491-3.777 5.95-4.061Z" fill="#fff"/></svg>