<svg width="28" height="28" viewBox="0 0 28 28" fill="none" xmlns="http://www.w3.org/2000/svg">
<path fill-rule="evenodd" clip-rule="evenodd" d="M19.1515 28C15.7479 28 10.9065 27.8255 7.67774 27.8255C1.63911 27.8255 0 24.1922 0 19.5725C0 14.9528 0.0890461 9.84328 0.0890461 8.09202C0.0890461 2.90199 2.34818 0.0201299 7.94818 0.0201299C10.0193 0.0201299 17.8092 0 20.4608 0C25.5562 0 28 2.14043 28 8.40738C28 9.95399 27.8879 12.8493 27.8879 20.8775C27.8879 25.9267 25.543 28 19.1515 28ZM24.4283 10.0479L20.9258 7.51162L15.7743 13.2888L15.9326 8.15576L11.1307 8.07524L11.6914 9.95063L11.8035 15.654C10.0556 15.3453 7.92509 10.8867 8.06031 8.27318L3.48598 8.33693C4.60071 17.5327 11.2825 21.9981 15.5468 21.3674L15.649 17.9722C15.9788 17.8112 16.4273 17.5629 16.9682 17.2341L20.0518 21.3506L25.1242 21.0721L20.2662 14.8354C21.8971 13.4761 23.3034 11.8598 24.4316 10.0479H24.4283Z" fill="#2B1C06"/>
</svg>
