<svg width="266" height="77" viewBox="0 0 266 77" fill="none" xmlns="http://www.w3.org/2000/svg">
<path d="M87.2 65C86.96 65 86.88 64.8533 86.96 64.56L92.6 39.12C92.6533 38.9067 92.8 38.8 93.04 38.8H97.04C97.28 38.8 97.4133 38.9067 97.44 39.12L103.16 64.52C103.187 64.68 103.173 64.8 103.12 64.88C103.093 64.96 103.013 65 102.88 65H99.6C99.4133 65 99.28 64.9067 99.2 64.72L96 48.2C95.84 47.2667 95.6667 46.3467 95.48 45.44C95.32 44.5333 95.16 43.64 95 42.76H94.92C94.8133 43.64 94.68 44.5333 94.52 45.44C94.36 46.3467 94.1867 47.2667 94 48.2L90.8 64.68C90.7467 64.8933 90.6267 65 90.44 65H87.2ZM91.28 59.08L91.92 55.8H98.04L98.68 59.08H91.28ZM107.364 65.28C106.591 65.28 105.991 65.08 105.564 64.68C105.164 64.28 104.964 63.7333 104.964 63.04V62.52C104.964 61.8 105.164 61.24 105.564 60.84C105.991 60.4133 106.591 60.2 107.364 60.2C108.138 60.2 108.724 60.4133 109.124 60.84C109.524 61.24 109.724 61.8 109.724 62.52V63.04C109.724 63.7333 109.524 64.28 109.124 64.68C108.724 65.08 108.138 65.28 107.364 65.28ZM123.45 56.56C121.824 56.56 120.584 56.0667 119.73 55.08C118.877 54.0667 118.45 52.5067 118.45 50.4V39.2C118.45 38.9333 118.557 38.8 118.77 38.8H121.77C122.01 38.8 122.13 38.9333 122.13 39.2V49.88C122.13 51.0533 122.317 51.8933 122.69 52.4C123.064 52.88 123.664 53.12 124.49 53.12C125.29 53.12 126.077 52.9067 126.85 52.48C127.65 52.0533 128.37 51.5333 129.01 50.92V54.32C128.504 54.72 127.944 55.0933 127.33 55.44C126.744 55.7867 126.117 56.0667 125.45 56.28C124.81 56.4667 124.144 56.56 123.45 56.56ZM128.93 65C128.717 65 128.61 64.8667 128.61 64.6V39.2C128.61 38.9333 128.717 38.8 128.93 38.8H131.93C132.17 38.8 132.29 38.9333 132.29 39.2V64.6C132.29 64.8667 132.17 65 131.93 65H128.93ZM136.666 65C136.426 65 136.306 64.8667 136.306 64.6V39.2C136.306 38.9333 136.412 38.8 136.626 38.8H147.226C147.466 38.8 147.586 38.9467 147.586 39.24V41.8C147.586 42.0933 147.466 42.24 147.226 42.24H139.986V50.04H146.586C146.826 50.04 146.946 50.1867 146.946 50.48V52.92C146.946 53.2133 146.826 53.36 146.586 53.36H139.986V61.56H147.226C147.466 61.56 147.586 61.7067 147.586 62V64.6C147.586 64.8667 147.466 65 147.226 65H136.666ZM151.587 65C151.373 65 151.267 64.8667 151.267 64.6V39.2C151.267 38.9333 151.373 38.8 151.587 38.8H156.467C159 38.8 160.853 39.48 162.027 40.84C163.2 42.2 163.787 44.28 163.787 47.08C163.787 49.8 163.173 51.8667 161.947 53.28C160.72 54.6667 158.947 55.36 156.627 55.36H154.947V64.6C154.947 64.8667 154.827 65 154.587 65H151.587ZM154.947 51.96H156.467C157.693 51.96 158.6 51.5867 159.187 50.84C159.8 50.0667 160.107 48.84 160.107 47.16C160.107 45.3733 159.813 44.1067 159.227 43.36C158.64 42.5867 157.747 42.2 156.547 42.2H154.947V51.96ZM167.133 65C166.92 65 166.813 64.8667 166.813 64.6V39.2C166.813 38.9333 166.92 38.8 167.133 38.8H170.133C170.373 38.8 170.493 38.9333 170.493 39.2V49.8H177.493V39.2C177.493 38.9333 177.627 38.8 177.893 38.8H180.813C181.08 38.8 181.213 38.9333 181.213 39.2V64.6C181.213 64.8667 181.08 65 180.813 65H177.893C177.627 65 177.493 64.8667 177.493 64.6V53.24H170.493V64.6C170.493 64.8667 170.373 65 170.133 65H167.133ZM183.971 65C183.838 65 183.758 64.96 183.731 64.88C183.704 64.7733 183.718 64.64 183.771 64.48L186.571 57C186.811 56.3867 187.051 55.7733 187.291 55.16C187.558 54.5467 187.824 53.92 188.091 53.28V53.2C187.024 52.6133 186.211 51.8 185.651 50.76C185.091 49.6933 184.811 48.36 184.811 46.76C184.811 45 185.091 43.5333 185.651 42.36C186.211 41.1867 187.038 40.3067 188.131 39.72C189.251 39.1067 190.624 38.8 192.251 38.8H197.531C197.771 38.8 197.891 38.9333 197.891 39.2V64.6C197.891 64.8667 197.771 65 197.531 65H194.571C194.304 65 194.171 64.8667 194.171 64.6V54.08H191.531L187.651 64.72C187.598 64.8 187.531 64.8667 187.451 64.92C187.371 64.9733 187.291 65 187.211 65H183.971ZM192.371 50.96H194.171V42.16H192.251C190.998 42.16 190.051 42.5333 189.411 43.28C188.798 44 188.491 45.16 188.491 46.76C188.491 47.7733 188.624 48.5867 188.891 49.2C189.158 49.8133 189.584 50.2667 190.171 50.56C190.758 50.8267 191.491 50.96 192.371 50.96ZM202.971 64.4L201.171 62.16C201.571 62.08 201.891 61.6933 202.131 61C202.371 60.28 202.517 59.2 202.571 57.76L203.291 39.24C203.291 38.9467 203.411 38.8 203.651 38.8H215.091C215.304 38.8533 215.411 39 215.411 39.24V64.44C215.411 64.7333 215.304 64.88 215.091 64.88H212.051C211.837 64.88 211.731 64.7333 211.731 64.44V42.2H206.851L206.251 57.56C206.224 59.0533 206.051 60.24 205.731 61.12C205.437 61.9733 205.051 62.6533 204.571 63.16C204.117 63.64 203.584 64.0533 202.971 64.4ZM200.731 70.24C200.624 70.24 200.531 70.2 200.451 70.12C200.397 70.04 200.371 69.9467 200.371 69.84V61.96C200.371 61.8267 200.397 61.7333 200.451 61.68C200.531 61.6 200.624 61.56 200.731 61.56H216.931C217.064 61.56 217.157 61.6 217.211 61.68C217.264 61.7333 217.291 61.8267 217.291 61.96V69.84C217.291 69.9467 217.251 70.04 217.171 70.12C217.117 70.2 217.024 70.24 216.891 70.24H214.011C213.904 70.24 213.811 70.2 213.731 70.12C213.677 70.04 213.651 69.9467 213.651 69.84V65H204.051V69.84C204.051 69.9467 204.011 70.04 203.931 70.12C203.877 70.2 203.784 70.24 203.651 70.24H200.731ZM220.219 65C220.006 65 219.899 64.8667 219.899 64.6V39.2C219.899 38.9333 220.006 38.8 220.219 38.8H223.219C223.459 38.8 223.579 38.9333 223.579 39.2V48.4H225.099C227.686 48.4 229.619 49.0667 230.899 50.4C232.206 51.7333 232.859 53.7333 232.859 56.4C232.859 59.1733 232.233 61.3067 230.979 62.8C229.753 64.2667 227.779 65 225.059 65H220.219ZM223.579 61.6H225.019C226.486 61.6 227.539 61.1867 228.179 60.36C228.846 59.5067 229.166 58.1867 229.139 56.4C229.139 54.72 228.806 53.52 228.139 52.8C227.499 52.08 226.473 51.72 225.059 51.72H223.579V61.6ZM236.275 65C236.035 65 235.915 64.8667 235.915 64.6V39.2C235.915 38.9333 236.022 38.8 236.235 38.8H246.835C247.075 38.8 247.195 38.9467 247.195 39.24V41.8C247.195 42.0933 247.075 42.24 246.835 42.24H239.595V50.04H246.195C246.435 50.04 246.555 50.1867 246.555 50.48V52.92C246.555 53.2133 246.435 53.36 246.195 53.36H239.595V61.56H246.835C247.075 61.56 247.195 61.7067 247.195 62V64.6C247.195 64.8667 247.075 65 246.835 65H236.275ZM251.276 65C251.009 65 250.876 64.8667 250.876 64.6V39.2C250.876 38.9333 251.009 38.8 251.276 38.8H256.196C258.623 38.8 260.409 39.3333 261.556 40.4C262.729 41.4667 263.316 43.0933 263.316 45.28C263.316 46.6667 263.063 47.8267 262.556 48.76C262.076 49.6933 261.303 50.4667 260.236 51.08V51.16C261.516 51.5333 262.476 52.2667 263.116 53.36C263.783 54.4533 264.116 55.8667 264.116 57.6C264.116 60.0533 263.489 61.9067 262.236 63.16C261.009 64.3867 259.156 65 256.676 65H251.276ZM254.556 61.68H256.636C257.943 61.68 258.889 61.3333 259.476 60.64C260.089 59.92 260.396 58.8133 260.396 57.32C260.396 55.8533 260.089 54.7733 259.476 54.08C258.863 53.3867 257.916 53.04 256.636 53.04H254.556V61.68ZM254.556 49.88H256.316C257.436 49.88 258.276 49.5467 258.836 48.88C259.396 48.2133 259.676 47.2 259.676 45.84C259.676 44.5067 259.396 43.56 258.836 43C258.303 42.4133 257.436 42.12 256.236 42.12H254.556V49.88Z" fill="#2B1C06"/>
<path d="M88.232 13C88.1253 13 88.072 12.9413 88.072 12.824L88.296 2.696C88.296 2.57867 88.3493 2.52 88.456 2.52H90.264C90.3493 2.52 90.4133 2.56267 90.456 2.648L93.208 8.808L95.928 2.648C95.9707 2.56267 96.0347 2.52 96.12 2.52H97.928C98.0347 2.52 98.088 2.57867 98.088 2.696L98.312 12.824C98.312 12.9413 98.2587 13 98.152 13H96.984C96.8773 13 96.824 12.9413 96.824 12.824L96.664 6.776C96.6533 6.11467 96.6747 5.31467 96.728 4.376H96.68C96.3813 5.13333 96.0347 5.928 95.64 6.76L93.4 11.592C93.3573 11.6773 93.2933 11.72 93.208 11.72H93.16C93.0747 11.72 93.016 11.6773 92.984 11.592L90.696 6.696C90.472 6.23733 90.1467 5.464 89.72 4.376H89.672C89.704 4.952 89.72 5.544 89.72 6.152V6.728L89.56 12.824C89.56 12.9413 89.5067 13 89.4 13H88.232ZM110.735 12.872C110.735 12.9573 110.681 13 110.575 13H109.279C109.172 13 109.103 12.9573 109.071 12.872L108.335 10.632H103.935L103.215 12.856C103.183 12.952 103.119 13 103.023 13H101.775C101.647 13 101.599 12.936 101.631 12.808L105.151 2.648C105.183 2.56267 105.247 2.52 105.343 2.52H106.959C107.065 2.52 107.135 2.56267 107.167 2.648L110.719 12.808L110.735 12.872ZM107.919 9.32L106.783 5.848L106.127 3.88H106.111C105.919 4.49867 105.769 4.95733 105.663 5.256C105.62 5.416 105.561 5.60267 105.487 5.816L104.351 9.32H107.919ZM117.866 13.192C116.554 13.192 115.557 12.8667 114.874 12.216C114.191 11.5653 113.85 10.616 113.85 9.368V6.152C113.85 4.91467 114.191 3.97067 114.874 3.32C115.567 2.65867 116.57 2.328 117.882 2.328C118.661 2.328 119.349 2.45067 119.946 2.696C120.554 2.94133 121.029 3.29867 121.37 3.768C121.711 4.22667 121.882 4.77067 121.882 5.4C121.882 5.624 121.871 5.79467 121.85 5.912C121.829 6.06133 121.77 6.136 121.674 6.136H120.474C120.367 6.136 120.314 6.07733 120.314 5.96C120.346 5.224 120.154 4.65867 119.738 4.264C119.322 3.86933 118.709 3.672 117.898 3.672C117.077 3.672 116.447 3.88533 116.01 4.312C115.583 4.728 115.37 5.34133 115.37 6.152V9.368C115.37 10.1787 115.583 10.7973 116.01 11.224C116.447 11.64 117.077 11.848 117.898 11.848C118.666 11.848 119.263 11.672 119.69 11.32C120.117 10.968 120.33 10.4773 120.33 9.848C120.33 9.72 120.325 9.624 120.314 9.56C120.314 9.44267 120.367 9.384 120.474 9.384H121.658C121.722 9.384 121.765 9.40533 121.786 9.448C121.818 9.48 121.839 9.53333 121.85 9.608C121.861 9.68267 121.866 9.79467 121.866 9.944C121.866 10.5947 121.701 11.1653 121.37 11.656C121.039 12.1467 120.57 12.5253 119.962 12.792C119.365 13.0587 118.666 13.192 117.866 13.192ZM128.745 13C128.627 13 128.569 12.9413 128.569 12.824V3.896H125.721C125.614 3.896 125.561 3.83733 125.561 3.72V2.696C125.561 2.57867 125.614 2.52 125.721 2.52H132.953C133.059 2.52 133.113 2.57867 133.113 2.696V3.72C133.113 3.83733 133.059 3.896 132.953 3.896H130.105V12.824C130.105 12.9413 130.046 13 129.929 13H128.745ZM137.354 13C137.247 13 137.194 12.9413 137.194 12.824V2.696C137.194 2.57867 137.247 2.52 137.354 2.52H143.178C143.285 2.52 143.338 2.57867 143.338 2.696V3.72C143.338 3.83733 143.285 3.896 143.178 3.896H138.714V7.016H142.794C142.837 7.016 142.874 7.032 142.906 7.064C142.938 7.096 142.954 7.13867 142.954 7.192V8.168C142.954 8.22133 142.938 8.264 142.906 8.296C142.874 8.328 142.837 8.344 142.794 8.344H138.714V11.624H143.178C143.285 11.624 143.338 11.6827 143.338 11.8V12.824C143.338 12.9413 143.285 13 143.178 13H137.354ZM148.156 13C148.05 13 147.996 12.9413 147.996 12.824V2.696C147.996 2.57867 148.05 2.52 148.156 2.52H150.924C152.236 2.52 153.218 2.80267 153.868 3.368C154.53 3.92267 154.86 4.744 154.86 5.832C154.86 6.90933 154.524 7.73067 153.852 8.296C153.191 8.85067 152.215 9.128 150.924 9.128H149.516V12.824C149.516 12.9413 149.463 13 149.356 13H148.156ZM150.892 7.832C151.735 7.832 152.348 7.67733 152.732 7.368C153.127 7.048 153.324 6.552 153.324 5.88C153.324 5.16533 153.127 4.64267 152.732 4.312C152.338 3.98133 151.714 3.816 150.86 3.816H149.516V7.832H150.892ZM162.842 13.192C161.53 13.192 160.532 12.8667 159.85 12.216C159.167 11.5653 158.826 10.616 158.826 9.368V6.152C158.826 4.91467 159.167 3.97067 159.85 3.32C160.543 2.65867 161.546 2.328 162.858 2.328C163.636 2.328 164.324 2.45067 164.922 2.696C165.53 2.94133 166.004 3.29867 166.346 3.768C166.687 4.22667 166.858 4.77067 166.858 5.4C166.858 5.624 166.847 5.79467 166.826 5.912C166.804 6.06133 166.746 6.136 166.65 6.136H165.45C165.343 6.136 165.29 6.07733 165.29 5.96C165.322 5.224 165.13 4.65867 164.714 4.264C164.298 3.86933 163.684 3.672 162.874 3.672C162.052 3.672 161.423 3.88533 160.986 4.312C160.559 4.728 160.346 5.34133 160.346 6.152V9.368C160.346 10.1787 160.559 10.7973 160.986 11.224C161.423 11.64 162.052 11.848 162.874 11.848C163.642 11.848 164.239 11.672 164.666 11.32C165.092 10.968 165.306 10.4773 165.306 9.848C165.306 9.72 165.3 9.624 165.29 9.56C165.29 9.44267 165.343 9.384 165.45 9.384H166.634C166.698 9.384 166.74 9.40533 166.762 9.448C166.794 9.48 166.815 9.53333 166.826 9.608C166.836 9.68267 166.842 9.79467 166.842 9.944C166.842 10.5947 166.676 11.1653 166.346 11.656C166.015 12.1467 165.546 12.5253 164.938 12.792C164.34 13.0587 163.642 13.192 162.842 13.192ZM171.59 13C171.483 13 171.43 12.9413 171.43 12.824V2.696C171.43 2.57867 171.483 2.52 171.59 2.52H172.79C172.896 2.52 172.95 2.57867 172.95 2.696V7.016H174.23L177.51 2.616C177.563 2.552 177.632 2.52 177.718 2.52H179.062C179.136 2.52 179.179 2.54133 179.19 2.584C179.211 2.62667 179.2 2.67467 179.158 2.728L175.558 7.528L179.478 12.792C179.499 12.8133 179.51 12.8453 179.51 12.888C179.51 12.9627 179.467 13 179.382 13H177.894C177.808 13 177.739 12.968 177.686 12.904L174.278 8.376H172.95V12.824C172.95 12.9413 172.896 13 172.79 13H171.59ZM191.133 12.872C191.133 12.9573 191.08 13 190.973 13H189.677C189.571 13 189.501 12.9573 189.469 12.872L188.733 10.632H184.333L183.613 12.856C183.581 12.952 183.517 13 183.421 13H182.173C182.045 13 181.997 12.936 182.029 12.808L185.549 2.648C185.581 2.56267 185.645 2.52 185.741 2.52H187.357C187.464 2.52 187.533 2.56267 187.565 2.648L191.117 12.808L191.133 12.872ZM188.317 9.32L187.181 5.848L186.525 3.88H186.509C186.317 4.49867 186.168 4.95733 186.061 5.256C186.019 5.416 185.96 5.60267 185.885 5.816L184.749 9.32H188.317ZM193.925 13C193.861 13 193.819 12.984 193.797 12.952C193.776 12.9093 193.781 12.856 193.813 12.792L195.413 9.992C195.872 9.20267 196.187 8.67467 196.357 8.408V8.376C195.739 8.17333 195.269 7.83733 194.949 7.368C194.629 6.89867 194.469 6.30667 194.469 5.592C194.469 3.544 195.733 2.52 198.261 2.52H201.541C201.648 2.52 201.701 2.57867 201.701 2.696V12.824C201.701 12.9413 201.648 13 201.541 13H200.341C200.235 13 200.181 12.9413 200.181 12.824V8.616H197.845L195.493 12.888C195.461 12.9627 195.392 13 195.285 13H193.925ZM200.181 7.4V3.816H198.309C197.499 3.816 196.912 3.97067 196.549 4.28C196.187 4.57867 196.005 5.05867 196.005 5.72C196.005 6.33867 196.181 6.776 196.533 7.032C196.885 7.27733 197.499 7.4 198.373 7.4H200.181ZM88.472 29C88.3653 29 88.312 28.9413 88.312 28.824V18.696C88.312 18.5787 88.3653 18.52 88.472 18.52H89.624C89.6773 18.52 89.72 18.536 89.752 18.568C89.784 18.6 89.8 18.6427 89.8 18.696V23.464C89.8 24.3173 89.7733 25.2773 89.72 26.344C89.6987 26.6213 89.688 26.8187 89.688 26.936H89.72C90.2533 25.912 90.904 24.7547 91.672 23.464L94.568 18.632C94.6213 18.5573 94.6853 18.52 94.76 18.52H96.088C96.1413 18.52 96.184 18.536 96.216 18.568C96.248 18.6 96.264 18.6427 96.264 18.696V28.824C96.264 28.8773 96.248 28.92 96.216 28.952C96.184 28.984 96.1413 29 96.088 29H94.936C94.8827 29 94.84 28.984 94.808 28.952C94.776 28.92 94.76 28.8773 94.76 28.824V24.248C94.76 22.8293 94.8027 21.608 94.888 20.584H94.856C94.344 21.5547 93.6453 22.776 92.76 24.248L89.992 28.888C89.9387 28.9627 89.8747 29 89.8 29H88.472ZM101.274 29C101.168 29 101.114 28.9413 101.114 28.824V18.696C101.114 18.5787 101.168 18.52 101.274 18.52H102.474C102.581 18.52 102.634 18.5787 102.634 18.696V22.952H107.579V18.696C107.579 18.5787 107.632 18.52 107.739 18.52H108.939C108.992 18.52 109.035 18.536 109.067 18.568C109.099 18.6 109.115 18.6427 109.115 18.696V28.824C109.115 28.8773 109.099 28.92 109.067 28.952C109.035 28.984 108.992 29 108.939 29H107.739C107.632 29 107.579 28.9413 107.579 28.824V24.28H102.634V28.824C102.634 28.9413 102.581 29 102.474 29H101.274ZM114.124 29C114.017 29 113.964 28.9413 113.964 28.824V18.696C113.964 18.5787 114.017 18.52 114.124 18.52H115.324C115.431 18.52 115.484 18.5787 115.484 18.696V22.952H120.428V18.696C120.428 18.5787 120.481 18.52 120.588 18.52H121.788C121.841 18.52 121.884 18.536 121.916 18.568C121.948 18.6 121.964 18.6427 121.964 18.696V28.824C121.964 28.8773 121.948 28.92 121.916 28.952C121.884 28.984 121.841 29 121.788 29H120.588C120.481 29 120.428 28.9413 120.428 28.824V24.28H115.484V28.824C115.484 28.9413 115.431 29 115.324 29H114.124ZM130.653 29.192C129.32 29.192 128.312 28.8667 127.629 28.216C126.957 27.5547 126.621 26.6107 126.621 25.384V22.136C126.621 20.9093 126.957 19.9707 127.629 19.32C128.312 18.6587 129.32 18.328 130.653 18.328C131.997 18.328 133.005 18.6587 133.677 19.32C134.36 19.9707 134.701 20.9093 134.701 22.136V25.384C134.701 26.6107 134.36 27.5547 133.677 28.216C133.005 28.8667 131.997 29.192 130.653 29.192ZM130.653 27.848C131.475 27.848 132.099 27.6347 132.525 27.208C132.963 26.7813 133.181 26.1573 133.181 25.336V22.184C133.181 21.3627 132.963 20.7387 132.525 20.312C132.099 19.8853 131.475 19.672 130.653 19.672C129.832 19.672 129.208 19.8853 128.781 20.312C128.355 20.7387 128.141 21.3627 128.141 22.184V25.336C128.141 26.1573 128.355 26.7813 128.781 27.208C129.208 27.6347 129.832 27.848 130.653 27.848ZM139.526 29C139.419 29 139.366 28.9413 139.366 28.824V18.696C139.366 18.5787 139.419 18.52 139.526 18.52H142.47C144.923 18.52 146.15 19.3893 146.15 21.128C146.15 21.7147 146.011 22.1893 145.734 22.552C145.456 22.9147 145.008 23.208 144.39 23.432V23.464C145.862 23.7307 146.598 24.6053 146.598 26.088C146.598 27.0907 146.267 27.8267 145.606 28.296C144.944 28.7653 143.904 29 142.486 29H139.526ZM142.422 22.984C143.179 22.984 143.734 22.856 144.086 22.6C144.448 22.3333 144.63 21.9227 144.63 21.368C144.63 20.8133 144.448 20.4187 144.086 20.184C143.734 19.9387 143.131 19.816 142.278 19.816H140.886V22.984H142.422ZM142.486 27.688C143.414 27.688 144.075 27.56 144.47 27.304C144.875 27.0373 145.078 26.6 145.078 25.992C145.078 25.3627 144.875 24.904 144.47 24.616C144.064 24.328 143.419 24.184 142.534 24.184H140.886V27.688H142.486ZM158.57 28.872C158.57 28.9573 158.516 29 158.41 29H157.114C157.007 29 156.938 28.9573 156.906 28.872L156.17 26.632H151.77L151.05 28.856C151.018 28.952 150.954 29 150.858 29H149.61C149.482 29 149.434 28.936 149.466 28.808L152.986 18.648C153.018 18.5627 153.082 18.52 153.178 18.52H154.794C154.9 18.52 154.97 18.5627 155.002 18.648L158.554 28.808L158.57 28.872ZM155.754 25.32L154.618 21.848L153.962 19.88H153.946C153.754 20.4987 153.604 20.9573 153.498 21.256C153.455 21.416 153.396 21.6027 153.322 21.816L152.186 25.32H155.754ZM169.599 31.112C169.557 31.112 169.519 31.096 169.487 31.064C169.455 31.032 169.439 30.9893 169.439 30.936V29H162.271C162.165 29 162.111 28.9413 162.111 28.824V18.696C162.111 18.5787 162.165 18.52 162.271 18.52H163.471C163.578 18.52 163.631 18.5787 163.631 18.696V27.624H168.319V18.696C168.319 18.6427 168.335 18.6 168.367 18.568C168.399 18.536 168.442 18.52 168.495 18.52H169.679C169.797 18.52 169.855 18.5787 169.855 18.696V27.624H170.783C170.837 27.624 170.879 27.64 170.911 27.672C170.943 27.704 170.959 27.7413 170.959 27.784V30.936C170.959 30.9893 170.943 31.032 170.911 31.064C170.879 31.096 170.837 31.112 170.783 31.112H169.599ZM175.043 29C174.936 29 174.883 28.9413 174.883 28.824V18.696C174.883 18.5787 174.936 18.52 175.043 18.52H176.195C176.248 18.52 176.291 18.536 176.323 18.568C176.355 18.6 176.371 18.6427 176.371 18.696V23.464C176.371 24.3173 176.344 25.2773 176.291 26.344C176.269 26.6213 176.259 26.8187 176.259 26.936H176.291C176.824 25.912 177.475 24.7547 178.243 23.464L181.139 18.632C181.192 18.5573 181.256 18.52 181.331 18.52H182.659C182.712 18.52 182.755 18.536 182.787 18.568C182.819 18.6 182.835 18.6427 182.835 18.696V28.824C182.835 28.8773 182.819 28.92 182.787 28.952C182.755 28.984 182.712 29 182.659 29H181.507C181.453 29 181.411 28.984 181.379 28.952C181.347 28.92 181.331 28.8773 181.331 28.824V24.248C181.331 22.8293 181.373 21.608 181.459 20.584H181.427C180.915 21.5547 180.216 22.776 179.331 24.248L176.563 28.888C176.509 28.9627 176.445 29 176.371 29H175.043ZM187.845 29C187.738 29 187.685 28.9413 187.685 28.824V18.696C187.685 18.5787 187.738 18.52 187.845 18.52H188.997C189.05 18.52 189.093 18.536 189.125 18.568C189.157 18.6 189.173 18.6427 189.173 18.696V23.464C189.173 24.3173 189.146 25.2773 189.093 26.344C189.072 26.6213 189.061 26.8187 189.061 26.936H189.093C189.626 25.912 190.277 24.7547 191.045 23.464L193.941 18.632C193.994 18.5573 194.058 18.52 194.133 18.52H195.461C195.514 18.52 195.557 18.536 195.589 18.568C195.621 18.6 195.637 18.6427 195.637 18.696V28.824C195.637 28.8773 195.621 28.92 195.589 28.952C195.557 28.984 195.514 29 195.461 29H194.309C194.256 29 194.213 28.984 194.181 28.952C194.149 28.92 194.133 28.8773 194.133 28.824V24.248C194.133 22.8293 194.176 21.608 194.261 20.584H194.229C193.717 21.5547 193.018 22.776 192.133 24.248L189.365 28.888C189.312 28.9627 189.248 29 189.173 29H187.845ZM191.653 17.56C191.216 17.56 190.8 17.4853 190.405 17.336C190.01 17.1867 189.717 17.0373 189.525 16.888C189.461 16.8347 189.429 16.7707 189.429 16.696V15.768C189.429 15.608 189.493 15.5707 189.621 15.656C190.4 16.1253 191.077 16.36 191.653 16.36C192.005 16.36 192.346 16.296 192.677 16.168C193.008 16.0293 193.344 15.8587 193.685 15.656C193.706 15.6347 193.738 15.624 193.781 15.624C193.834 15.624 193.861 15.672 193.861 15.768V16.696C193.861 16.7707 193.834 16.8347 193.781 16.888C193.589 17.0373 193.29 17.1867 192.885 17.336C192.49 17.4853 192.08 17.56 191.653 17.56Z" fill="#2B1C06"/>
<circle cx="36" cy="36" r="36" fill="#2B1C06"/>
<path fill-rule="evenodd" clip-rule="evenodd" d="M43.1207 19.0601L39.831 17.2278L41.0039 14.5855L44.7386 16.204L48.9339 12.9945L61.1138 18.1398L54.132 31.5149L42.8887 24.7807L43.1207 19.0601ZM56.5801 20.6443L57.3864 19.0236L49.8642 15.9485L49.1428 17.1633L56.5801 20.6443ZM54.8089 24.2047L55.5299 22.755L48.1 18.8949L47.106 20.571L54.8089 24.2047ZM53.7694 26.3025L46.0922 22.2699L45.358 23.4712L52.8428 28.1383L53.7694 26.3025ZM40.1008 13.1074L37.8209 17.3989C37.8209 17.3989 34.3299 16.0054 30.6517 14.4763C26.5656 12.7784 29.7297 7.00565 33.4599 9.13459C36.8488 11.0735 40.1021 13.0972 40.1021 13.0972L40.1008 13.1074Z" fill="white"/>
<path fill-rule="evenodd" clip-rule="evenodd" d="M29.2049 61.0336C27.5086 60.6538 20.8418 59.386 19.4684 59.0785C8.90066 56.713 12.2071 42.5112 23.5517 45.0532L30.6299 46.6376C41.317 49.0072 39.4275 63.3218 29.2049 61.0336ZM31.2652 48.4496C23.936 46.809 22.5352 57.8128 30.3442 59.5583C37.4763 61.1472 38.5667 50.0739 31.2669 48.4424L31.2652 48.4496ZM33.7626 55.9801C32.2724 55.6466 32.8311 53.6302 34.2195 53.941C35.6078 54.2518 35.1154 56.2754 33.7643 55.973L33.7626 55.9801ZM32.0571 52.8239C30.2664 52.423 30.9316 49.9791 32.613 50.3554C34.2944 50.7318 33.6949 53.1855 32.0582 52.8191L32.0571 52.8239ZM29.8452 57.8778C27.4982 57.3524 28.3731 54.1558 30.5686 54.6472C32.7641 55.1387 31.9884 58.3474 29.8475 57.8682L29.8452 57.8778ZM28.2675 52.2278C26.7898 51.897 27.3385 49.8785 28.7268 50.1892C30.1152 50.5 29.6203 52.5231 28.2692 52.2206L28.2675 52.2278ZM7.94062 53.4789L8.26305 46.5089L12.3046 49.3205L11.3946 51.6163L7.94062 53.4789Z" fill="white"/>
<path fill-rule="evenodd" clip-rule="evenodd" d="M19 36.903C18.3722 35.2784 20.8073 34.1635 21.6328 35.8338L30.6951 32.1525L28.3022 26.7697C25.7556 27.8223 23.9937 23.9357 26.5325 22.7868L25.0772 19.5101L14.168 19.0195C11.1674 20.9946 9.36842 24.6773 9.39343 26.7743C9.39343 26.7743 14.1954 36.4145 15.2415 38.4297L19 36.903ZM24.3451 21.1833L24.6909 21.9933C22.2958 24.2123 24.2449 28.595 27.4641 28.5053L28.6693 31.3375L22.2298 34.0684C20.3932 32.5529 17.4287 33.8923 17.2848 36.1656L16.3813 36.5487L11.277 26.7254L24.3451 21.1833ZM18.6828 31.0311C21.7378 29.7355 19.6704 25.4952 16.8025 26.7114C13.9346 27.9277 15.8875 32.2116 18.6788 31.0278L18.6828 31.0311ZM23.5839 31.4638C25.5482 30.6307 24.2203 27.9029 22.3729 28.6864C20.5254 29.4699 21.7834 32.2224 23.5798 31.4605L23.5839 31.4638Z" fill="white"/>
<path fill-rule="evenodd" clip-rule="evenodd" d="M60.5039 46.5427C61.2828 48.3223 61.1272 49.3294 59.9205 49.8582C59.5823 50.0064 58.988 50.2668 58.988 50.2668L58.0454 48.6129L58.9829 48.0221L56.2036 42.7993L54.3847 43.5963L59.7639 53.6886C59.0588 55.3055 49.7511 59.084 46.8791 59.4845L41.5552 46.7461C37.0347 46.696 36.1589 40.5461 40.1577 39.0789C40.0881 37.2735 41.0188 35.4317 43.2912 34.436C45.807 33.3337 47.9824 34.1563 49.2825 35.7105C52.326 34.9019 54.4037 38.5453 52.831 40.7043L53.3801 41.7356C53.787 41.5363 54.3169 41.2831 54.6628 41.1316C56.4894 40.3312 57.6675 40.9639 58.6651 42.9027C58.9784 43.4854 60.1632 45.768 60.5039 46.5427ZM57.5544 53.0848L51.4933 41.8544L45.3935 44.5873C45.1947 45.0211 44.907 45.4109 44.5479 45.7327C44.1889 46.0546 43.7661 46.3018 43.3054 46.4592L47.7659 57.362C50.2311 57.0678 56.2111 54.2494 57.5544 53.0848ZM48.9988 37.5118L48.4197 37.3995C46.446 33.7346 40.7967 35.8501 41.9251 39.8194L41.5468 40.3331C40.0138 40.4769 38.5608 41.9236 39.4012 43.7362C40.5041 46.1147 43.7748 45.3176 44.1535 43.2557L50.799 40.3438C51.0017 40.2588 51.1844 40.1345 51.336 39.9785C51.4876 39.8224 51.6049 39.6379 51.6808 39.4363C51.7566 39.2346 51.7893 39.02 51.777 38.8055C51.7647 38.591 51.7076 38.3812 51.6092 38.1889C51.509 37.9541 51.3547 37.7448 51.1581 37.5773C50.9614 37.4099 50.7278 37.2887 50.4754 37.2232C50.2229 37.1577 49.9584 37.1497 49.7023 37.1997C49.4462 37.2498 49.2055 37.3565 48.9988 37.5118ZM51.7364 44.9847L55.721 52.5743C55.0449 53.3565 50.2073 55.7402 48.5253 55.7423L45.787 48.9326C49.2513 48.5995 49.2783 45.2609 51.7364 44.9847Z" fill="white"/>
</svg>
