<svg width="72" height="72" viewBox="0 0 72 72" fill="none" xmlns="http://www.w3.org/2000/svg">
<circle cx="36" cy="36" r="36" fill="#F0F3EE"/>
<path fill-rule="evenodd" clip-rule="evenodd" d="M44.1203 17.5287L40.8305 15.6439L42.0034 12.9259L45.7381 14.5907L49.9334 11.2892L62.1133 16.582L55.1315 30.3408L43.8882 23.4134L44.1203 17.5287ZM57.5796 19.1584L58.3859 17.4912L50.8637 14.3279L50.1423 15.5776L57.5796 19.1584ZM55.8084 22.8209L56.5294 21.3296L49.0996 17.3588L48.1055 19.083L55.8084 22.8209ZM54.7689 24.9789L47.0918 20.8306L46.3575 22.0664L53.8424 26.8674L54.7689 24.9789ZM41.1003 11.4053L38.8204 15.82C38.8204 15.82 35.3294 14.3865 31.6512 12.8135C27.5651 11.0668 30.7293 5.12856 34.4594 7.31856C37.8483 9.31308 41.1016 11.3948 41.1016 11.3948L41.1003 11.4053Z" fill="white"/>
<path fill-rule="evenodd" clip-rule="evenodd" d="M30.2049 60.7066C28.5086 60.3159 21.8418 59.0117 20.4684 58.6955C9.90066 56.2621 13.2071 41.653 24.5517 44.2678L31.6299 45.8977C42.317 48.3352 40.4275 63.0605 30.2049 60.7066ZM32.2652 47.7616C24.936 46.074 23.5352 57.3934 31.3442 59.189C38.4763 60.8235 39.5667 49.4326 32.2669 47.7542L32.2652 47.7616ZM34.7626 55.5082C33.2724 55.1651 33.8311 53.0909 35.2195 53.4106C36.6078 53.7303 36.1154 55.8119 34.7643 55.5008L34.7626 55.5082ZM33.0571 52.2614C31.2664 51.8491 31.9316 49.335 33.613 49.7222C35.2944 50.1093 34.6949 52.6334 33.0582 52.2565L33.0571 52.2614ZM30.8452 57.4602C28.4982 56.9198 29.3731 53.6315 31.5686 54.1371C33.7641 54.6426 32.9884 57.9434 30.8475 57.4504L30.8452 57.4602ZM29.2675 51.6483C27.7898 51.308 28.3385 49.2315 29.7268 49.5512C31.1152 49.8709 30.6203 51.952 29.2692 51.6409L29.2675 51.6483ZM8.94062 52.9352L9.26305 45.7653L13.3046 48.6575L12.3946 51.0192L8.94062 52.9352Z" fill="white"/>
<path fill-rule="evenodd" clip-rule="evenodd" d="M20.0005 35.8843C19.3726 34.2131 21.8077 33.0662 22.6333 34.7845L31.6955 30.9975L29.3027 25.4603C26.7561 26.5431 24.9942 22.5451 27.533 21.3632L26.0777 17.9925L15.1685 17.4879C12.1679 19.5196 10.3689 23.308 10.3939 25.4651C10.3939 25.4651 15.1959 35.3818 16.242 37.4548L20.0005 35.8843ZM25.3456 19.7137L25.6914 20.5469C23.2963 22.8296 25.2454 27.338 28.4645 27.2457L29.6697 30.1591L23.2303 32.9684C21.3937 31.4094 18.4292 32.7872 18.2853 35.1257L17.3818 35.5199L12.2775 25.4148L25.3456 19.7137ZM19.6833 29.8439C22.7383 28.5112 20.6709 24.1493 17.803 25.4004C14.9351 26.6515 16.888 31.0583 19.6793 29.8406L19.6833 29.8439ZM24.5843 30.2891C26.5487 29.4321 25.2208 26.626 23.3733 27.432C21.5259 28.238 22.7839 31.0694 24.5803 30.2857L24.5843 30.2891Z" fill="white"/>
<path fill-rule="evenodd" clip-rule="evenodd" d="M61.5039 45.7997C62.2828 47.6303 62.1272 48.6663 60.9205 49.2102C60.5823 49.3627 59.988 49.6306 59.988 49.6306L59.0454 47.9292L59.9829 47.3215L57.2036 41.9489L55.3847 42.7688L60.7639 53.1505C60.0588 54.8138 50.7511 58.7006 47.8791 59.1127L42.5552 46.0089C38.0347 45.9574 37.1589 39.6311 41.1577 38.1218C41.0881 36.2646 42.0188 34.37 44.2912 33.3457C46.807 32.2118 48.9824 33.058 50.2825 34.6568C53.326 33.825 55.4037 37.5728 53.831 39.7938L54.3801 40.8547C54.787 40.6497 55.3169 40.3892 55.6628 40.2333C57.4894 39.41 58.6675 40.0609 59.6651 42.0552C59.9784 42.6546 61.1632 45.0028 61.5039 45.7997ZM58.5544 52.5294L52.4933 40.9769L46.3935 43.7881C46.1947 44.2344 45.907 44.6354 45.5479 44.9664C45.1889 45.2975 44.7661 45.5518 44.3054 45.7137L48.7659 56.9293C51.2311 56.6266 57.2111 53.7274 58.5544 52.5294ZM49.9988 36.5097L49.4197 36.3943C47.446 32.6242 41.7967 34.8003 42.9251 38.8835L42.5468 39.412C41.0137 39.5599 39.5608 41.048 40.4012 42.9126C41.5041 45.3594 44.7748 44.5394 45.1534 42.4184L51.799 39.4229C52.0017 39.3355 52.1844 39.2076 52.336 39.0471C52.4876 38.8866 52.6049 38.6969 52.6808 38.4894C52.7566 38.2819 52.7893 38.0612 52.777 37.8405C52.7647 37.6199 52.7076 37.4041 52.6092 37.2062C52.509 36.9647 52.3547 36.7494 52.158 36.5771C51.9614 36.4049 51.7278 36.2802 51.4754 36.2129C51.2229 36.1455 50.9584 36.1372 50.7023 36.1887C50.4462 36.2402 50.2055 36.35 49.9988 36.5097ZM52.7364 44.197L56.721 52.0042C56.0449 52.8089 51.2073 55.261 49.5253 55.2631L46.787 48.2581C50.2513 47.9155 50.2783 44.4811 52.7364 44.197Z" fill="white"/>
</svg>
