<svg width="28" height="28" fill="none" xmlns="http://www.w3.org/2000/svg"><path fill-rule="evenodd" clip-rule="evenodd" d="M19.151 28c-3.403 0-8.245-.174-11.473-.174C1.639 27.826 0 24.192 0 19.573c0-4.62.089-9.73.089-11.481 0-5.19 2.26-8.072 7.86-8.072 2.07 0 9.86-.02 12.512-.02C25.556 0 28 2.14 28 8.407c0 1.547-.112 4.442-.112 12.47 0 5.05-2.345 7.123-8.737 7.123Zm5.277-17.952-3.502-2.536-5.152 5.777.159-5.133-4.802-.08.56 1.875.112 5.703c-1.747-.309-3.878-4.767-3.743-7.38l-4.574.063c1.115 9.196 7.796 13.661 12.06 13.03l.103-3.395c.33-.16.778-.41 1.32-.738l3.083 4.117 5.072-.279-4.858-6.237a19.974 19.974 0 0 0 4.166-4.787h-.004Z" fill="#2B1C06"/></svg>