<svg width="266" height="77" fill="none" xmlns="http://www.w3.org/2000/svg"><path d="M87.2 65c-.24 0-.32-.147-.24-.44l5.64-25.44c.053-.213.2-.32.44-.32h4c.24 0 .373.107.4.32l5.72 25.4c.027.16.013.28-.04.36-.027.08-.107.12-.24.12H99.6c-.187 0-.32-.093-.4-.28L96 48.2a84.376 84.376 0 0 0-.52-2.76c-.16-.907-.32-1.8-.48-2.68h-.08c-.107.88-.24 1.773-.4 2.68-.16.907-.333 1.827-.52 2.76l-3.2 16.48c-.053.213-.173.32-.36.32H87.2Zm4.08-5.92.64-3.28h6.12l.64 3.28h-7.4Zm16.084 6.2c-.773 0-1.373-.2-1.8-.6-.4-.4-.6-.947-.6-1.64v-.52c0-.72.2-1.28.6-1.68.427-.427 1.027-.64 1.8-.64.774 0 1.36.213 1.76.64.4.4.6.96.6 1.68v.52c0 .693-.2 1.24-.6 1.64-.4.4-.986.6-1.76.6Zm16.086-8.72c-1.626 0-2.866-.493-3.72-1.48-.853-1.013-1.28-2.573-1.28-4.68V39.2c0-.267.107-.4.32-.4h3c.24 0 .36.133.36.4v10.68c0 1.173.187 2.013.56 2.52.374.48.974.72 1.8.72.8 0 1.587-.213 2.36-.64.8-.427 1.52-.947 2.16-1.56v3.4c-.506.4-1.066.773-1.68 1.12a9.156 9.156 0 0 1-1.88.84c-.64.187-1.306.28-2 .28Zm5.48 8.44c-.213 0-.32-.133-.32-.4V39.2c0-.267.107-.4.32-.4h3c.24 0 .36.133.36.4v25.4c0 .267-.12.4-.36.4h-3Zm7.736 0c-.24 0-.36-.133-.36-.4V39.2c0-.267.106-.4.32-.4h10.6c.24 0 .36.147.36.44v2.56c0 .293-.12.44-.36.44h-7.24v7.8h6.6c.24 0 .36.147.36.44v2.44c0 .293-.12.44-.36.44h-6.6v8.2h7.24c.24 0 .36.147.36.44v2.6c0 .267-.12.4-.36.4h-10.56Zm14.921 0c-.214 0-.32-.133-.32-.4V39.2c0-.267.106-.4.32-.4h4.88c2.533 0 4.386.68 5.56 2.04 1.173 1.36 1.76 3.44 1.76 6.24 0 2.72-.614 4.787-1.84 6.2-1.227 1.387-3 2.08-5.32 2.08h-1.68v9.24c0 .267-.12.4-.36.4h-3Zm3.36-13.04h1.52c1.226 0 2.133-.373 2.72-1.12.613-.773.92-2 .92-3.68 0-1.787-.294-3.053-.88-3.8-.587-.773-1.48-1.16-2.68-1.16h-1.6v9.76ZM167.133 65c-.213 0-.32-.133-.32-.4V39.2c0-.267.107-.4.32-.4h3c.24 0 .36.133.36.4v10.6h7V39.2c0-.267.134-.4.4-.4h2.92c.267 0 .4.133.4.4v25.4c0 .267-.133.4-.4.4h-2.92c-.266 0-.4-.133-.4-.4V53.24h-7V64.6c0 .267-.12.4-.36.4h-3Zm16.838 0c-.133 0-.213-.04-.24-.12-.027-.107-.013-.24.04-.4l2.8-7.48.72-1.84c.267-.613.533-1.24.8-1.88v-.08c-1.067-.587-1.88-1.4-2.44-2.44-.56-1.067-.84-2.4-.84-4 0-1.76.28-3.227.84-4.4.56-1.173 1.387-2.053 2.48-2.64 1.12-.613 2.493-.92 4.12-.92h5.28c.24 0 .36.133.36.4v25.4c0 .267-.12.4-.36.4h-2.96c-.267 0-.4-.133-.4-.4V54.08h-2.64l-3.88 10.64a.71.71 0 0 1-.2.2.43.43 0 0 1-.24.08h-3.24Zm8.4-14.04h1.8v-8.8h-1.92c-1.253 0-2.2.373-2.84 1.12-.613.72-.92 1.88-.92 3.48 0 1.013.133 1.827.4 2.44a2.655 2.655 0 0 0 1.28 1.36c.587.267 1.32.4 2.2.4Zm10.6 13.44-1.8-2.24c.4-.08.72-.467.96-1.16.24-.72.386-1.8.44-3.24l.72-18.52c0-.293.12-.44.36-.44h11.44c.213.053.32.2.32.44v25.2c0 .293-.107.44-.32.44h-3.04c-.214 0-.32-.147-.32-.44V42.2h-4.88l-.6 15.36c-.027 1.493-.2 2.68-.52 3.56-.294.853-.68 1.533-1.16 2.04-.454.48-.987.893-1.6 1.24Zm-2.24 5.84c-.107 0-.2-.04-.28-.12a.488.488 0 0 1-.08-.28v-7.88c0-.133.026-.227.08-.28.08-.08.173-.12.28-.12h16.2c.133 0 .226.04.28.12.053.053.08.147.08.28v7.88c0 .107-.04.2-.12.28-.054.08-.147.12-.28.12h-2.88c-.107 0-.2-.04-.28-.12a.488.488 0 0 1-.08-.28V65h-9.6v4.84c0 .107-.04.2-.12.28-.054.08-.147.12-.28.12h-2.92ZM220.219 65c-.213 0-.32-.133-.32-.4V39.2c0-.267.107-.4.32-.4h3c.24 0 .36.133.36.4v9.2h1.52c2.587 0 4.52.667 5.8 2 1.307 1.333 1.96 3.333 1.96 6 0 2.773-.626 4.907-1.88 6.4-1.226 1.467-3.2 2.2-5.92 2.2h-4.84Zm3.36-3.4h1.44c1.467 0 2.52-.413 3.16-1.24.667-.853.987-2.173.96-3.96 0-1.68-.333-2.88-1-3.6-.64-.72-1.666-1.08-3.08-1.08h-1.48v9.88Zm12.696 3.4c-.24 0-.36-.133-.36-.4V39.2c0-.267.107-.4.32-.4h10.6c.24 0 .36.147.36.44v2.56c0 .293-.12.44-.36.44h-7.24v7.8h6.6c.24 0 .36.147.36.44v2.44c0 .293-.12.44-.36.44h-6.6v8.2h7.24c.24 0 .36.147.36.44v2.6c0 .267-.12.4-.36.4h-10.56Zm15.001 0c-.267 0-.4-.133-.4-.4V39.2c0-.267.133-.4.4-.4h4.92c2.427 0 4.213.533 5.36 1.6 1.173 1.067 1.76 2.693 1.76 4.88 0 1.387-.253 2.547-.76 3.48-.48.933-1.253 1.707-2.32 2.32v.08c1.28.373 2.24 1.107 2.88 2.2.667 1.093 1 2.507 1 4.24 0 2.453-.627 4.307-1.88 5.56-1.227 1.227-3.08 1.84-5.56 1.84h-5.4Zm3.28-3.32h2.08c1.307 0 2.253-.347 2.84-1.04.613-.72.92-1.827.92-3.32 0-1.467-.307-2.547-.92-3.24-.613-.693-1.56-1.04-2.84-1.04h-2.08v8.64Zm0-11.8h1.76c1.12 0 1.96-.333 2.52-1s.84-1.68.84-3.04c0-1.333-.28-2.28-.84-2.84-.533-.587-1.4-.88-2.6-.88h-1.68v7.76ZM88.232 13c-.107 0-.16-.059-.16-.176l.224-10.128c0-.117.053-.176.16-.176h1.808c.085 0 .15.043.192.128l2.752 6.16 2.72-6.16c.043-.085.107-.128.192-.128h1.808c.107 0 .16.059.16.176l.224 10.128c0 .117-.053.176-.16.176h-1.168c-.107 0-.16-.059-.16-.176l-.16-6.048c-.01-.661.01-1.461.064-2.4h-.048a38.764 38.764 0 0 1-1.04 2.384l-2.24 4.832c-.043.085-.107.128-.192.128h-.048c-.085 0-.144-.043-.176-.128l-2.288-4.896c-.224-.459-.55-1.232-.976-2.32h-.048c.032.576.048 1.168.048 1.776v.576l-.16 6.096c0 .117-.053.176-.16.176h-1.168Zm22.503-.128c0 .085-.054.128-.16.128h-1.296c-.107 0-.176-.043-.208-.128l-.736-2.24h-4.4l-.72 2.224c-.032.096-.096.144-.192.144h-1.248c-.128 0-.176-.064-.144-.192l3.52-10.16c.032-.085.096-.128.192-.128h1.616c.106 0 .176.043.208.128l3.552 10.16.016.064Zm-2.816-3.552-1.136-3.472-.656-1.968h-.016a39.182 39.182 0 0 1-.448 1.376c-.043.16-.102.347-.176.56l-1.136 3.504h3.568Zm9.947 3.872c-1.312 0-2.309-.325-2.992-.976-.683-.65-1.024-1.6-1.024-2.848V6.152c0-1.237.341-2.181 1.024-2.832.693-.661 1.696-.992 3.008-.992.779 0 1.467.123 2.064.368.608.245 1.083.603 1.424 1.072.341.459.512 1.003.512 1.632 0 .224-.011.395-.032.512-.021.15-.08.224-.176.224h-1.2c-.107 0-.16-.059-.16-.176.032-.736-.16-1.301-.576-1.696-.416-.395-1.029-.592-1.84-.592-.821 0-1.451.213-1.888.64-.427.416-.64 1.03-.64 1.84v3.216c0 .81.213 1.43.64 1.856.437.416 1.067.624 1.888.624.768 0 1.365-.176 1.792-.528.427-.352.64-.843.64-1.472a1.86 1.86 0 0 0-.016-.288c0-.117.053-.176.16-.176h1.184c.064 0 .107.021.128.064.032.032.053.085.064.16.011.075.016.187.016.336 0 .65-.165 1.221-.496 1.712-.331.49-.8.87-1.408 1.136-.597.267-1.296.4-2.096.4ZM128.745 13c-.118 0-.176-.059-.176-.176V3.896h-2.848c-.107 0-.16-.059-.16-.176V2.696c0-.117.053-.176.16-.176h7.232c.106 0 .16.059.16.176V3.72c0 .117-.054.176-.16.176h-2.848v8.928c0 .117-.059.176-.176.176h-1.184Zm8.609 0c-.107 0-.16-.059-.16-.176V2.696c0-.117.053-.176.16-.176h5.824c.107 0 .16.059.16.176V3.72c0 .117-.053.176-.16.176h-4.464v3.12h4.08c.043 0 .08.016.112.048a.173.173 0 0 1 .048.128v.976a.173.173 0 0 1-.048.128.153.153 0 0 1-.112.048h-4.08v3.28h4.464c.107 0 .16.059.16.176v1.024c0 .117-.053.176-.16.176h-5.824Zm10.802 0c-.106 0-.16-.059-.16-.176V2.696c0-.117.054-.176.16-.176h2.768c1.312 0 2.294.283 2.944.848.662.555.992 1.376.992 2.464 0 1.077-.336 1.899-1.008 2.464-.661.555-1.637.832-2.928.832h-1.408v3.696c0 .117-.053.176-.16.176h-1.2Zm2.736-5.168c.843 0 1.456-.155 1.84-.464.395-.32.592-.816.592-1.488 0-.715-.197-1.237-.592-1.568-.394-.33-1.018-.496-1.872-.496h-1.344v4.016h1.376Zm11.95 5.36c-1.312 0-2.31-.325-2.992-.976-.683-.65-1.024-1.6-1.024-2.848V6.152c0-1.237.341-2.181 1.024-2.832.693-.661 1.696-.992 3.008-.992.778 0 1.466.123 2.064.368.608.245 1.082.603 1.424 1.072.341.459.512 1.003.512 1.632 0 .224-.011.395-.032.512-.022.15-.08.224-.176.224h-1.2c-.107 0-.16-.059-.16-.176.032-.736-.16-1.301-.576-1.696-.416-.395-1.03-.592-1.84-.592-.822 0-1.451.213-1.888.64-.427.416-.64 1.03-.64 1.84v3.216c0 .81.213 1.43.64 1.856.437.416 1.066.624 1.888.624.768 0 1.365-.176 1.792-.528.426-.352.64-.843.64-1.472 0-.128-.006-.224-.016-.288 0-.117.053-.176.16-.176h1.184c.064 0 .106.021.128.064.032.032.053.085.064.16.01.075.016.187.016.336 0 .65-.166 1.221-.496 1.712-.331.49-.8.87-1.408 1.136-.598.267-1.296.4-2.096.4ZM171.59 13c-.107 0-.16-.059-.16-.176V2.696c0-.117.053-.176.16-.176h1.2c.106 0 .16.059.16.176v4.32h1.28l3.28-4.4a.257.257 0 0 1 .208-.096h1.344c.074 0 .117.021.128.064.021.043.01.09-.032.144l-3.6 4.8 3.92 5.264c.021.021.032.053.032.096 0 .075-.043.112-.128.112h-1.488a.257.257 0 0 1-.208-.096l-3.408-4.528h-1.328v4.448c0 .117-.054.176-.16.176h-1.2Zm19.543-.128c0 .085-.053.128-.16.128h-1.296c-.106 0-.176-.043-.208-.128l-.736-2.24h-4.4l-.72 2.224c-.032.096-.096.144-.192.144h-1.248c-.128 0-.176-.064-.144-.192l3.52-10.16c.032-.085.096-.128.192-.128h1.616c.107 0 .176.043.208.128l3.552 10.16.016.064Zm-2.816-3.552-1.136-3.472-.656-1.968h-.016a37.142 37.142 0 0 1-.448 1.376c-.042.16-.101.347-.176.56l-1.136 3.504h3.568Zm5.608 3.68c-.064 0-.106-.016-.128-.048-.021-.043-.016-.096.016-.16l1.6-2.8c.459-.79.774-1.317.944-1.584v-.032c-.618-.203-1.088-.539-1.408-1.008-.32-.47-.48-1.061-.48-1.776 0-2.048 1.264-3.072 3.792-3.072h3.28c.107 0 .16.059.16.176v10.128c0 .117-.053.176-.16.176h-1.2c-.106 0-.16-.059-.16-.176V8.616h-2.336l-2.352 4.272c-.032.075-.101.112-.208.112h-1.36Zm6.256-5.6V3.816h-1.872c-.81 0-1.397.155-1.76.464-.362.299-.544.779-.544 1.44 0 .619.176 1.056.528 1.312.352.245.966.368 1.84.368h1.808ZM88.472 29c-.107 0-.16-.059-.16-.176V18.696c0-.117.053-.176.16-.176h1.152c.053 0 .096.016.128.048a.173.173 0 0 1 .048.128v4.768c0 .853-.027 1.813-.08 2.88a8.893 8.893 0 0 0-.032.592h.032a71.286 71.286 0 0 1 1.952-3.472l2.896-4.832c.053-.075.117-.112.192-.112h1.328c.053 0 .096.016.128.048a.173.173 0 0 1 .048.128v10.128a.173.173 0 0 1-.048.128.173.173 0 0 1-.128.048h-1.152a.173.173 0 0 1-.128-.048.173.173 0 0 1-.048-.128v-4.576c0-1.419.043-2.64.128-3.664h-.032a78.13 78.13 0 0 1-2.096 3.664l-2.768 4.64c-.053.075-.117.112-.192.112h-1.328Zm12.802 0c-.106 0-.16-.059-.16-.176V18.696c0-.117.054-.176.16-.176h1.2c.107 0 .16.059.16.176v4.256h4.945v-4.256c0-.117.053-.176.16-.176h1.2c.053 0 .096.016.128.048a.173.173 0 0 1 .048.128v10.128a.173.173 0 0 1-.048.128.174.174 0 0 1-.128.048h-1.2c-.107 0-.16-.059-.16-.176V24.28h-4.945v4.544c0 .117-.053.176-.16.176h-1.2Zm12.85 0c-.107 0-.16-.059-.16-.176V18.696c0-.117.053-.176.16-.176h1.2c.107 0 .16.059.16.176v4.256h4.944v-4.256c0-.117.053-.176.16-.176h1.2c.053 0 .096.016.128.048a.173.173 0 0 1 .048.128v10.128a.173.173 0 0 1-.048.128.174.174 0 0 1-.128.048h-1.2c-.107 0-.16-.059-.16-.176V24.28h-4.944v4.544c0 .117-.053.176-.16.176h-1.2Zm16.529.192c-1.333 0-2.341-.325-3.024-.976-.672-.661-1.008-1.605-1.008-2.832v-3.248c0-1.227.336-2.165 1.008-2.816.683-.661 1.691-.992 3.024-.992 1.344 0 2.352.33 3.024.992.683.65 1.024 1.59 1.024 2.816v3.248c0 1.227-.341 2.17-1.024 2.832-.672.65-1.68.976-3.024.976Zm0-1.344c.822 0 1.446-.213 1.872-.64.438-.427.656-1.05.656-1.872v-3.152c0-.821-.218-1.445-.656-1.872-.426-.427-1.05-.64-1.872-.64-.821 0-1.445.213-1.872.64-.426.427-.64 1.05-.64 1.872v3.152c0 .821.214 1.445.64 1.872.427.427 1.051.64 1.872.64ZM139.526 29c-.107 0-.16-.059-.16-.176V18.696c0-.117.053-.176.16-.176h2.944c2.453 0 3.68.87 3.68 2.608 0 .587-.139 1.061-.416 1.424-.278.363-.726.656-1.344.88v.032c1.472.267 2.208 1.141 2.208 2.624 0 1.003-.331 1.739-.992 2.208-.662.47-1.702.704-3.12.704h-2.96Zm2.896-6.016c.757 0 1.312-.128 1.664-.384.362-.267.544-.677.544-1.232 0-.555-.182-.95-.544-1.184-.352-.245-.955-.368-1.808-.368h-1.392v3.168h1.536Zm.064 4.704c.928 0 1.589-.128 1.984-.384.405-.267.608-.704.608-1.312 0-.63-.203-1.088-.608-1.376-.406-.288-1.051-.432-1.936-.432h-1.648v3.504h1.6Zm16.084 1.184c0 .085-.054.128-.16.128h-1.296c-.107 0-.176-.043-.208-.128l-.736-2.24h-4.4l-.72 2.224c-.032.096-.096.144-.192.144h-1.248c-.128 0-.176-.064-.144-.192l3.52-10.16c.032-.085.096-.128.192-.128h1.616c.106 0 .176.043.208.128l3.552 10.16.016.064Zm-2.816-3.552-1.136-3.472-.656-1.968h-.016a39.182 39.182 0 0 1-.448 1.376c-.043.16-.102.347-.176.56l-1.136 3.504h3.568Zm13.845 5.792a.155.155 0 0 1-.112-.048.173.173 0 0 1-.048-.128V29h-7.168c-.106 0-.16-.059-.16-.176V18.696c0-.117.054-.176.16-.176h1.2c.107 0 .16.059.16.176v8.928h4.688v-8.928c0-.053.016-.096.048-.128a.174.174 0 0 1 .128-.048h1.184c.118 0 .176.059.176.176v8.928h.928c.054 0 .096.016.128.048s.048.07.048.112v3.152a.173.173 0 0 1-.048.128.172.172 0 0 1-.128.048h-1.184ZM175.043 29c-.107 0-.16-.059-.16-.176V18.696c0-.117.053-.176.16-.176h1.152c.053 0 .096.016.128.048a.173.173 0 0 1 .048.128v4.768c0 .853-.027 1.813-.08 2.88a8.427 8.427 0 0 0-.032.592h.032a71.034 71.034 0 0 1 1.952-3.472l2.896-4.832c.053-.075.117-.112.192-.112h1.328c.053 0 .096.016.128.048a.173.173 0 0 1 .048.128v10.128a.173.173 0 0 1-.048.128.174.174 0 0 1-.128.048h-1.152a.172.172 0 0 1-.128-.048.173.173 0 0 1-.048-.128v-4.576c0-1.419.042-2.64.128-3.664h-.032a78.402 78.402 0 0 1-2.096 3.664l-2.768 4.64c-.054.075-.118.112-.192.112h-1.328Zm12.802 0c-.107 0-.16-.059-.16-.176V18.696c0-.117.053-.176.16-.176h1.152c.053 0 .096.016.128.048a.173.173 0 0 1 .048.128v4.768c0 .853-.027 1.813-.08 2.88a9.109 9.109 0 0 0-.032.592h.032a71.034 71.034 0 0 1 1.952-3.472l2.896-4.832c.053-.075.117-.112.192-.112h1.328c.053 0 .096.016.128.048a.173.173 0 0 1 .048.128v10.128a.173.173 0 0 1-.048.128.174.174 0 0 1-.128.048h-1.152a.174.174 0 0 1-.128-.048.173.173 0 0 1-.048-.128v-4.576c0-1.419.043-2.64.128-3.664h-.032a78.402 78.402 0 0 1-2.096 3.664l-2.768 4.64c-.053.075-.117.112-.192.112h-1.328Zm3.808-11.44a3.5 3.5 0 0 1-1.248-.224c-.395-.15-.688-.299-.88-.448a.242.242 0 0 1-.096-.192v-.928c0-.16.064-.197.192-.112.779.47 1.456.704 2.032.704.352 0 .693-.064 1.024-.192.331-.139.667-.31 1.008-.512.021-.021.053-.032.096-.032.053 0 .08.048.08.144v.928a.263.263 0 0 1-.08.192c-.192.15-.491.299-.896.448-.395.15-.805.224-1.232.224Z" fill="#2B1C06"/><circle cx="36" cy="36" r="36" fill="#2B1C06"/><path fill-rule="evenodd" clip-rule="evenodd" d="m43.12 19.06-3.289-1.832 1.173-2.643 3.735 1.619 4.195-3.21 12.18 5.146-6.982 13.375-11.243-6.734.232-5.72Zm13.46 1.584.806-1.62-7.522-3.076-.721 1.215 7.437 3.481Zm-1.771 3.56.72-1.449-7.429-3.86-.994 1.676 7.703 3.634Zm-1.04 2.098-7.677-4.032-.734 1.201 7.485 4.667.926-1.836ZM40.101 13.107 37.82 17.4s-3.491-1.394-7.17-2.923c-4.085-1.698-.921-7.47 2.809-5.341 3.389 1.938 6.642 3.962 6.642 3.962l-.001.01ZM29.205 61.034c-1.696-.38-8.363-1.648-9.737-1.956-10.567-2.365-7.26-16.567 4.084-14.025l7.078 1.585c10.687 2.37 8.798 16.684-1.425 14.396Zm2.06-12.584c-7.329-1.641-8.73 9.363-.92 11.108 7.131 1.59 8.222-9.484.922-11.116l-.002.008Zm2.498 7.53c-1.49-.333-.932-2.35.456-2.039 1.389.31.896 2.334-.455 2.032l-.001.007Zm-1.706-3.156c-1.79-.401-1.125-2.845.556-2.469 1.681.377 1.082 2.83-.555 2.464v.005Zm-2.212 5.054c-2.347-.526-1.472-3.722.724-3.23 2.195.49 1.42 3.7-.721 3.22l-.003.01Zm-1.578-5.65c-1.477-.331-.928-2.35.46-2.039 1.388.311.893 2.334-.458 2.032l-.002.007Zm-20.326 1.25.322-6.97 4.042 2.813-.91 2.295L7.94 53.48ZM19 36.903c-.628-1.625 1.807-2.74 2.633-1.07l9.062-3.68-2.393-5.383c-2.546 1.052-4.308-2.834-1.77-3.983l-1.455-3.277-10.909-.49c-3 1.975-4.8 5.657-4.775 7.754 0 0 4.802 9.64 5.848 11.656L19 36.903Zm5.345-15.72.346.81c-2.395 2.22-.446 6.602 2.773 6.512l1.205 2.832-6.44 2.731c-1.836-1.515-4.8-.176-4.944 2.098l-.904.383-5.104-9.824 13.068-5.542Zm-5.662 9.848c3.055-1.296.987-5.536-1.88-4.32-2.868 1.217-.916 5.5 1.876 4.317l.004.003Zm4.9.433c1.965-.833.637-3.561-1.21-2.778-1.848.784-.59 3.536 1.207 2.774l.004.004ZM60.504 46.543c.779 1.78.623 2.786-.584 3.315l-.932.409-.943-1.654.938-.59-2.78-5.224-1.818.797 5.379 10.093c-.705 1.617-10.013 5.395-12.885 5.795l-5.324-12.738c-4.52-.05-5.396-6.2-1.397-7.667-.07-1.806.86-3.647 3.133-4.643 2.516-1.102 4.691-.28 5.992 1.275 3.043-.81 5.12 2.834 3.548 4.993l.55 1.032c.406-.2.936-.453 1.282-.604 1.826-.8 3.005-.168 4.002 1.77.313.583 1.498 2.866 1.839 3.64Zm-2.95 6.542-6.06-11.23-6.1 2.732a3.493 3.493 0 0 1-.846 1.146c-.36.322-.782.569-1.243.726l4.46 10.903c2.466-.294 8.446-3.113 9.79-4.277ZM49 37.512l-.58-.112c-1.973-3.665-7.622-1.55-6.494 2.42l-.378.513c-1.533.144-2.986 1.59-2.146 3.403 1.103 2.379 4.374 1.582 4.752-.48l6.646-2.912c.203-.085.385-.21.537-.366a1.541 1.541 0 0 0 .273-1.79 1.66 1.66 0 0 0-.45-.61 1.747 1.747 0 0 0-2.16-.066Zm2.737 7.473 3.985 7.59c-.676.781-5.514 3.165-7.196 3.167l-2.738-6.81c3.464-.333 3.491-3.671 5.95-3.947Z" fill="#fff"/></svg>